<?xml version="1.0" encoding="UTF-8" standalone="no"?>
<!-- Created with Inkscape (http://www.inkscape.org/) -->

<svg
   version="1.1"
   id="svg1"
   width="880"
   height="880"
   viewBox="0 0 880 880"
   sodipodi:docname="money-calculator.svg"
   inkscape:version="1.3.2 (091e20e, 2023-11-25, custom)"
   xmlns:inkscape="http://www.inkscape.org/namespaces/inkscape"
   xmlns:sodipodi="http://sodipodi.sourceforge.net/DTD/sodipodi-0.dtd"
   xmlns="http://www.w3.org/2000/svg"
   xmlns:svg="http://www.w3.org/2000/svg">
  <defs
     id="defs1">
    <clipPath
       clipPathUnits="userSpaceOnUse"
       id="clipPath3">
      <path
         d="M 0,660 H 660 V 0 H 0 Z"
         transform="translate(-452.34571,-442.86131)"
         id="path3" />
    </clipPath>
    <clipPath
       clipPathUnits="userSpaceOnUse"
       id="clipPath5">
      <path
         d="M 0,660 H 660 V 0 H 0 Z"
         transform="translate(-455.60741,-437.65381)"
         id="path5" />
    </clipPath>
    <clipPath
       clipPathUnits="userSpaceOnUse"
       id="clipPath7">
      <path
         d="M 0,660 H 660 V 0 H 0 Z"
         transform="translate(-420.15631,-400.04351)"
         id="path7" />
    </clipPath>
    <clipPath
       clipPathUnits="userSpaceOnUse"
       id="clipPath9">
      <path
         d="M 0,660 H 660 V 0 H 0 Z"
         transform="translate(-266.98191,-357.86521)"
         id="path9" />
    </clipPath>
    <clipPath
       clipPathUnits="userSpaceOnUse"
       id="clipPath11">
      <path
         d="M 0,660 H 660 V 0 H 0 Z"
         transform="translate(-22.391601,-399.31791)"
         id="path11" />
    </clipPath>
    <clipPath
       clipPathUnits="userSpaceOnUse"
       id="clipPath13">
      <path
         d="M 0,660 H 660 V 0 H 0 Z"
         transform="translate(-42.984401,-399.32811)"
         id="path13" />
    </clipPath>
    <clipPath
       clipPathUnits="userSpaceOnUse"
       id="clipPath15">
      <path
         d="M 0,660 H 660 V 0 H 0 Z"
         transform="translate(-149.3877,-378.72711)"
         id="path15" />
    </clipPath>
    <clipPath
       clipPathUnits="userSpaceOnUse"
       id="clipPath17">
      <path
         d="M 0,660 H 660 V 0 H 0 Z"
         transform="translate(-229.8535,-304.09281)"
         id="path17" />
    </clipPath>
    <clipPath
       clipPathUnits="userSpaceOnUse"
       id="clipPath19">
      <path
         d="M 0,660 H 660 V 0 H 0 Z"
         transform="translate(-307.21831,-352.78661)"
         id="path19" />
    </clipPath>
    <clipPath
       clipPathUnits="userSpaceOnUse"
       id="clipPath21">
      <path
         d="M 0,660 H 660 V 0 H 0 Z"
         transform="translate(-305.08151,-356.87891)"
         id="path21" />
    </clipPath>
    <clipPath
       clipPathUnits="userSpaceOnUse"
       id="clipPath23">
      <path
         d="M 0,660 H 660 V 0 H 0 Z"
         transform="translate(-183.2373,-354.21041)"
         id="path23" />
    </clipPath>
    <clipPath
       clipPathUnits="userSpaceOnUse"
       id="clipPath25">
      <path
         d="M 0,660 H 660 V 0 H 0 Z"
         transform="translate(-181.1011,-358.30271)"
         id="path25" />
    </clipPath>
    <clipPath
       clipPathUnits="userSpaceOnUse"
       id="clipPath27">
      <path
         d="M 0,660 H 660 V 0 H 0 Z"
         transform="translate(-318.68801,-270.10161)"
         id="path27" />
    </clipPath>
    <clipPath
       clipPathUnits="userSpaceOnUse"
       id="clipPath29">
      <path
         d="M 0,660 H 660 V 0 H 0 Z"
         transform="translate(-615.78322,-279.99711)"
         id="path29" />
    </clipPath>
    <clipPath
       clipPathUnits="userSpaceOnUse"
       id="clipPath31">
      <path
         d="M 0,660 H 660 V 0 H 0 Z"
         transform="translate(-495.47851,-283.99411)"
         id="path31" />
    </clipPath>
    <clipPath
       clipPathUnits="userSpaceOnUse"
       id="clipPath33">
      <path
         d="M 0,660 H 660 V 0 H 0 Z"
         transform="translate(-544.99511,-266.542)"
         id="path33" />
    </clipPath>
    <clipPath
       clipPathUnits="userSpaceOnUse"
       id="clipPath35">
      <path
         d="M 0,660 H 660 V 0 H 0 Z"
         transform="translate(-406.04881,-315.50591)"
         id="path35" />
    </clipPath>
    <clipPath
       clipPathUnits="userSpaceOnUse"
       id="clipPath37">
      <path
         d="M 0,660 H 660 V 0 H 0 Z"
         transform="translate(-470.78521,-266.38281)"
         id="path37" />
    </clipPath>
    <clipPath
       clipPathUnits="userSpaceOnUse"
       id="clipPath39">
      <path
         d="M 0,660 H 660 V 0 H 0 Z"
         transform="translate(-521.04791,-247.70611)"
         id="path39" />
    </clipPath>
    <clipPath
       clipPathUnits="userSpaceOnUse"
       id="clipPath41">
      <path
         d="M 0,660 H 660 V 0 H 0 Z"
         transform="translate(-380.30761,-300.00981)"
         id="path41" />
    </clipPath>
    <clipPath
       clipPathUnits="userSpaceOnUse"
       id="clipPath43">
      <path
         d="M 0,660 H 660 V 0 H 0 Z"
         transform="translate(-444.43651,-247.6006)"
         id="path43" />
    </clipPath>
    <clipPath
       clipPathUnits="userSpaceOnUse"
       id="clipPath45">
      <path
         d="M 0,660 H 660 V 0 H 0 Z"
         transform="translate(-495.45611,-227.5576)"
         id="path45" />
    </clipPath>
    <clipPath
       clipPathUnits="userSpaceOnUse"
       id="clipPath47">
      <path
         d="M 0,660 H 660 V 0 H 0 Z"
         transform="translate(-352.94431,-283.55181)"
         id="path47" />
    </clipPath>
    <clipPath
       clipPathUnits="userSpaceOnUse"
       id="clipPath49">
      <path
         d="M 0,660 H 660 V 0 H 0 Z"
         transform="translate(-397.06541,-266.21581)"
         id="path49" />
    </clipPath>
    <clipPath
       clipPathUnits="userSpaceOnUse"
       id="clipPath51">
      <path
         d="M 0,660 H 660 V 0 H 0 Z"
         transform="translate(-423.97851,-283.7725)"
         id="path51" />
    </clipPath>
    <clipPath
       clipPathUnits="userSpaceOnUse"
       id="clipPath53">
      <path
         d="M 0,660 H 660 V 0 H 0 Z"
         transform="translate(-518.71781,-300.54001)"
         id="path53" />
    </clipPath>
    <clipPath
       clipPathUnits="userSpaceOnUse"
       id="clipPath55">
      <path
         d="M 0,660 H 660 V 0 H 0 Z"
         transform="translate(-567.48142,-284.21391)"
         id="path55" />
    </clipPath>
    <clipPath
       clipPathUnits="userSpaceOnUse"
       id="clipPath57">
      <path
         d="M 0,660 H 660 V 0 H 0 Z"
         transform="translate(-430.36331,-330.12501)"
         id="path57" />
    </clipPath>
    <clipPath
       clipPathUnits="userSpaceOnUse"
       id="clipPath59">
      <path
         d="M 0,660 H 660 V 0 H 0 Z"
         transform="translate(-473.11231,-315.80861)"
         id="path59" />
    </clipPath>
    <clipPath
       clipPathUnits="userSpaceOnUse"
       id="clipPath61">
      <path
         d="M 0,660 H 660 V 0 H 0 Z"
         transform="translate(-449.27641,-300.27541)"
         id="path61" />
    </clipPath>
    <clipPath
       clipPathUnits="userSpaceOnUse"
       id="clipPath63">
      <path
         d="M 0,660 H 660 V 0 H 0 Z"
         transform="translate(-4.6543001,-315.29491)"
         id="path63" />
    </clipPath>
    <clipPath
       clipPathUnits="userSpaceOnUse"
       id="clipPath65">
      <path
         d="M 0,660 H 660 V 0 H 0 Z"
         transform="translate(-169.3872,-288.8584)"
         id="path65" />
    </clipPath>
    <clipPath
       clipPathUnits="userSpaceOnUse"
       id="clipPath67">
      <path
         d="M 0,660 H 660 V 0 H 0 Z"
         transform="translate(-82.054705,-235.14651)"
         id="path67" />
    </clipPath>
    <clipPath
       clipPathUnits="userSpaceOnUse"
       id="clipPath69">
      <path
         d="M 0,660 H 660 V 0 H 0 Z"
         transform="translate(-240.70021,-194.8525)"
         id="path69" />
    </clipPath>
  </defs>
  <sodipodi:namedview
     id="namedview1"
     pagecolor="#ffffff"
     bordercolor="#000000"
     borderopacity="0.25"
     inkscape:showpageshadow="2"
     inkscape:pageopacity="0.0"
     inkscape:pagecheckerboard="0"
     inkscape:deskcolor="#d1d1d1"
     inkscape:zoom="0.67272727"
     inkscape:cx="439.25676"
     inkscape:cy="440"
     inkscape:window-width="1440"
     inkscape:window-height="830"
     inkscape:window-x="-6"
     inkscape:window-y="-6"
     inkscape:window-maximized="1"
     inkscape:current-layer="g1">
    <inkscape:page
       x="0"
       y="0"
       inkscape:label="1"
       id="page1"
       width="880"
       height="880"
       margin="212.284 9.7893333 285.724 6.2057066"
       bleed="0" />
  </sodipodi:namedview>
  <g
     id="g1"
     inkscape:groupmode="layer"
     inkscape:label="1">
    <g
       id="group-MC0">
      <path
         id="path2"
         d="m 0,0 c 28.624,-5.176 58.953,-10.65 91.105,-16.456 34.111,-6.161 70.469,-12.73 109.208,-19.723 -24.557,-16.419 -51.838,-34.63 -82.244,-54.946 -34.207,-22.857 -72.934,-48.736 -117.092,-78.221 -45.479,15.807 -87.061,30.273 -125.174,43.529 -35.077,12.198 -67.53,23.48 -97.553,33.932 46.581,19.295 88.58,36.694 126.595,52.447 C -60.601,-25.118 -28.985,-12.02 0,0"
         style="fill:#eadbd7;fill-opacity:1;fill-rule:evenodd;stroke:none"
         transform="matrix(1.3333333,0,0,-1.3333333,603.1276,289.51827)"
         clip-path="url(#clipPath3)" />
      <path
         id="path4"
         d="m 0,0 c 9.33,-1.732 18.883,-3.503 28.574,-5.299 9.877,-1.828 19.992,-3.694 30.272,-5.599 -8.875,-4.265 -18.012,-8.647 -27.424,-13.172 -9.687,-4.655 -19.663,-9.453 -29.965,-14.42 -10.64,2.373 -21.053,4.687 -31.21,6.947 -9.967,2.216 -19.747,4.394 -29.301,6.518 10.571,4.486 20.819,8.822 30.786,13.048 C -18.593,-7.876 -9.167,-3.887 0,0"
         style="fill:#cfbcb8;fill-opacity:1;fill-rule:evenodd;stroke:none"
         transform="matrix(1.3333333,0,0,-1.3333333,607.47653,296.4616)"
         clip-path="url(#clipPath5)" />
      <path
         id="path6"
         d="m 0,0 c 15.736,-3.626 32.025,-7.369 48.837,-11.236 17.428,-4.011 35.445,-8.167 54.159,-12.483 -2.629,-1.499 -5.274,-3.027 -7.941,-4.551 -18.805,4.445 -36.93,8.729 -54.441,12.867 C 23.742,-11.418 7.379,-7.564 -8.414,-3.834 -5.583,-2.544 -2.797,-1.272 0,0"
         style="fill:#bba59f;fill-opacity:1;fill-rule:evenodd;stroke:none"
         transform="matrix(1.3333333,0,0,-1.3333333,560.2084,346.60867)"
         clip-path="url(#clipPath7)" />
      <path
         id="path8"
         d="m 0,0 c -3.827,-1.622 -7.61,-3.239 -11.488,-4.88 26.903,-8.994 55.648,-18.616 86.412,-28.912 33.034,-11.053 68.664,-22.977 107.072,-35.835 3.697,2.388 7.334,4.721 10.993,7.069 C 154.743,-50.152 119.249,-38.643 86.28,-27.96 55.595,-18.02 26.877,-8.71 0,0 M 18.805,7.984 C 15.136,6.426 11.507,4.889 7.839,3.318 c 26.865,-8.513 55.549,-17.602 86.197,-27.32 32.907,-10.436 68.285,-21.665 106.406,-33.758 3.51,2.259 6.939,4.478 10.412,6.707 -37.943,11.66 -73.194,22.505 -105.977,32.583 C 74.298,-9.068 45.659,-0.267 18.805,7.984 m 17.98,7.626 c -3.449,-1.471 -6.982,-2.965 -10.476,-4.445 26.833,-8.074 55.433,-16.673 85.962,-25.861 32.71,-9.844 67.858,-20.429 105.649,-31.814 3.301,2.114 6.618,4.241 9.84,6.33 -37.593,10.985 -72.6,21.224 -105.176,30.743 C 92.137,-0.535 63.595,7.785 36.785,15.61 m 17.252,7.308 c -3.314,-1.397 -6.688,-2.831 -10.063,-4.249 26.785,-7.663 55.278,-15.814 85.65,-24.506 32.514,-9.307 67.412,-19.297 104.87,-30.038 3.116,2.01 6.276,4.034 9.34,5.993 -37.248,10.383 -71.972,20.048 -104.365,29.055 -30.276,8.419 -58.708,16.318 -85.432,23.745 m 16.524,7.019 c -3.189,-1.351 -6.384,-2.711 -9.66,-4.092 26.701,-7.277 55.098,-14.998 85.312,-23.239 32.286,-8.804 66.889,-18.253 103.994,-28.39 3.019,1.932 5.959,3.841 8.891,5.708 -36.89,9.797 -71.31,18.947 -103.465,27.471 -30.114,7.984 -58.438,15.481 -85.072,22.542 m 31.099,13.181 c -2.933,-1.246 -5.875,-2.495 -8.869,-3.759 26.491,-6.572 54.627,-13.557 84.476,-20.974 31.821,-7.904 65.805,-16.363 102.162,-25.412 2.693,1.739 5.376,3.464 8.05,5.176 -36.132,8.753 -69.94,16.95 -101.595,24.613 -29.736,7.197 -57.792,13.967 -84.224,20.356 m 120.571,5.954 c -2.482,-1.222 -4.983,-2.456 -7.507,-3.707 16.775,-3.584 34.131,-7.29 52.066,-11.122 18.545,-3.966 37.792,-8.096 57.707,-12.355 2.322,1.491 4.615,2.958 6.871,4.41 -19.775,4.127 -38.887,8.109 -57.334,11.963 -17.826,3.724 -35.092,7.332 -51.803,10.811 m 12.538,6.175 c -2.406,-1.18 -4.819,-2.37 -7.236,-3.569 16.646,-3.411 33.852,-6.944 51.614,-10.581 18.357,-3.761 37.379,-7.66 57.058,-11.701 2.19,1.403 4.395,2.816 6.574,4.206 -19.536,3.911 -38.437,7.703 -56.681,11.36 -17.648,3.54 -34.766,6.961 -51.329,10.285 m 12.034,5.918 c -2.285,-1.127 -4.615,-2.273 -6.95,-3.41 16.52,-3.258 33.571,-6.614 51.154,-10.076 18.155,-3.576 36.967,-7.281 56.39,-11.119 2.104,1.348 4.204,2.698 6.282,4.034 -19.281,3.705 -37.972,7.304 -56.011,10.777 -17.489,3.366 -34.432,6.639 -50.865,9.794 M 209.206,42.64 c -2.59,-1.275 -5.191,-2.56 -7.831,-3.859 16.917,-3.759 34.444,-7.672 52.538,-11.701 18.741,-4.172 38.197,-8.519 58.367,-13.015 2.418,1.542 4.792,3.075 7.178,4.591 -20.03,4.369 -39.348,8.567 -57.998,12.623 -18.004,3.915 -35.422,7.709 -52.254,11.361 m 49.186,24.228 c 16.284,-3.014 33.09,-6.126 50.401,-9.336 17.835,-3.308 36.316,-6.721 55.337,-10.245 -1.983,-1.286 -4,-2.569 -6.008,-3.868 -19.187,3.641 -37.787,7.158 -55.738,10.56 -17.421,3.305 -34.319,6.495 -50.669,9.598 2.235,1.104 4.461,2.197 6.677,3.291 M 86.428,36.665 c 26.547,-6.712 54.73,-13.845 84.649,-21.418 31.92,-8.077 66.05,-16.731 102.547,-25.982 -2.781,-1.792 -5.585,-3.595 -8.472,-5.437 -36.716,9.561 -71.019,18.494 -103.095,26.839 -30.031,7.809 -58.287,15.156 -84.889,22.075 3.131,1.33 6.206,2.627 9.26,3.923"
         style="fill:#cfbcb8;fill-opacity:1;fill-rule:evenodd;stroke:none"
         transform="matrix(1.3333333,0,0,-1.3333333,355.97587,402.8464)"
         clip-path="url(#clipPath9)" />
      <path
         id="path10"
         d="m 0,0 c 34.103,9.124 65.868,17.615 95.495,25.538 27.652,7.395 53.618,14.338 77.974,20.851 29.206,-9.351 61.126,-19.559 96.086,-30.744 38.556,-12.335 81.267,-25.994 128.779,-41.188 -23.377,-11.913 -48.84,-24.901 -76.646,-39.072 -30.579,-15.592 -64.323,-32.79 -101.683,-51.848 -49.479,26.181 -92.519,48.97 -130.271,68.956 C 56.395,-29.853 26.647,-14.118 0,0"
         style="fill:#f4ecea;fill-opacity:1;fill-rule:evenodd;stroke:none"
         transform="matrix(1.3333333,0,0,-1.3333333,29.855467,347.57613)"
         clip-path="url(#clipPath11)" />
      <path
         id="path12"
         d="m 0,0 c 11.078,3.027 21.948,6.006 32.539,8.9 10.328,2.823 20.45,5.59 30.327,8.294 9.001,-3.758 18.27,-7.638 27.858,-11.654 9.874,-4.137 20.079,-8.413 30.632,-12.845 -10.16,-3.293 -20.626,-6.68 -31.318,-10.145 -10.982,-3.56 -22.321,-7.228 -33.909,-10.997 -10.224,5.184 -20.048,10.16 -29.534,14.966 C 17.417,-8.832 8.562,-4.339 0,0"
         style="fill:#eadbd7;fill-opacity:1;fill-rule:evenodd;stroke:none"
         transform="matrix(1.3333333,0,0,-1.3333333,57.312533,347.56253)"
         clip-path="url(#clipPath13)" />
      <path
         id="path14"
         d="m 0,0 c 15.96,5.333 31.311,10.467 46.07,15.406 14.166,4.737 27.851,9.304 41.033,13.71 2.872,-1.013 5.752,-2.035 8.658,-3.065 C 82.565,21.532 68.872,16.839 54.674,11.978 39.889,6.916 24.503,1.643 8.493,-3.849 5.63,-2.555 2.807,-1.273 0,0"
         style="fill:#cfbcb8;fill-opacity:1;fill-rule:evenodd;stroke:none"
         transform="matrix(1.3333333,0,0,-1.3333333,199.1836,375.03053)"
         clip-path="url(#clipPath15)" />
      <path
         id="path16"
         d="m 0,0 c 4.056,-2.073 8.096,-4.119 12.236,-6.237 31.661,15.477 60.691,29.676 87.358,42.716 24.569,12.013 47.332,23.146 68.464,33.476 -3.969,1.302 -7.847,2.58 -11.765,3.865 C 135.065,63.795 112.18,52.988 87.523,41.335 60.794,28.707 31.698,14.966 0,0 m -19.811,10.094 c 3.824,-1.947 7.649,-3.895 11.532,-5.874 31.701,14.632 60.806,28.057 87.594,40.418 24.7,11.396 47.64,21.985 68.958,31.82 -3.759,1.235 -7.49,2.462 -11.224,3.689 C 115.637,70.586 92.607,60.296 67.838,49.234 41.005,37.248 11.876,24.248 -19.811,10.094 m -18.701,9.52 c 3.564,-1.823 7.223,-3.679 10.865,-5.526 31.682,13.84 60.816,26.555 87.66,38.285 24.824,10.842 47.899,20.915 69.368,30.292 -3.592,1.178 -7.182,2.36 -10.723,3.52 C 97.118,77.054 73.985,67.257 49.118,56.726 22.25,45.349 -6.876,33.015 -38.512,19.614 m -17.705,9.016 c 3.356,-1.72 6.831,-3.488 10.285,-5.246 31.612,13.111 60.713,25.183 87.596,36.326 24.891,10.319 48.069,19.929 69.654,28.883 -3.422,1.124 -6.887,2.261 -10.245,3.361 C 79.411,83.238 56.195,73.892 31.284,63.856 4.4,53.033 -24.673,41.322 -56.217,28.63 m -16.782,8.533 c 3.194,-1.633 6.445,-3.287 9.76,-4.965 31.489,12.429 60.552,23.894 87.432,34.5 24.931,9.834 48.162,19.008 69.856,27.562 -3.335,1.097 -6.611,2.169 -9.84,3.231 C 62.473,89.155 39.215,80.219 14.283,70.655 -12.585,60.352 -41.6,49.213 -72.999,37.163 m -31.063,15.788 c 2.916,-1.474 5.825,-2.969 8.789,-4.467 31.135,11.205 60.024,21.585 86.817,31.232 24.912,8.967 48.212,17.36 70.017,25.203 -3.022,0.99 -6.034,1.972 -9.017,2.955 -21.827,-7.655 -45.13,-15.83 -70.033,-24.562 -26.752,-9.378 -55.56,-19.475 -86.573,-30.361 m 27.292,47.104 c 2.57,-1.045 5.163,-2.1 7.766,-3.165 14.467,4.501 28.424,8.842 41.877,13.034 12.959,4.038 25.505,7.95 37.645,11.725 -2.64,0.865 -5.275,1.729 -7.868,2.579 -12.14,-3.689 -24.672,-7.508 -37.629,-11.452 -13.434,-4.088 -27.364,-8.333 -41.791,-12.721 m -12.91,5.25 c 2.465,-1.001 4.962,-2.01 7.444,-3.028 14.395,4.32 28.296,8.477 41.717,12.502 12.946,3.882 25.484,7.637 37.616,11.274 -2.547,0.828 -5.07,1.663 -7.589,2.484 -12.13,-3.555 -24.646,-7.228 -37.568,-11.021 -13.397,-3.934 -27.253,-8.001 -41.62,-12.211 m -12.387,5.035 c 2.357,-0.954 4.764,-1.925 7.133,-2.898 14.336,4.137 28.175,8.139 41.543,12.003 12.925,3.734 25.431,7.343 37.548,10.844 -2.425,0.798 -4.886,1.603 -7.282,2.394 -12.129,-3.428 -24.609,-6.966 -37.508,-10.615 -13.339,-3.776 -27.149,-7.685 -41.434,-11.728 m 38.762,-15.773 c 2.691,-1.091 5.392,-2.195 8.095,-3.297 14.515,4.7 28.517,9.235 41.999,13.601 12.994,4.208 25.55,8.277 37.693,12.204 -2.754,0.901 -5.469,1.796 -8.193,2.682 -12.127,-3.837 -24.687,-7.812 -37.667,-11.919 -13.466,-4.261 -27.427,-8.682 -41.927,-13.271 m -50.664,20.604 c 14.195,3.884 27.942,7.64 41.232,11.273 12.857,3.513 25.325,6.925 37.418,10.229 2.323,-0.769 4.676,-1.536 7.026,-2.305 -12.099,-3.374 -24.583,-6.854 -37.451,-10.447 -13.322,-3.72 -27.117,-7.563 -41.346,-11.535 -2.306,0.934 -4.598,1.868 -6.879,2.785 m 25.037,-69.907 c 31.241,11.451 60.15,22.053 86.958,31.873 24.927,9.134 48.235,17.669 70.013,25.652 3.123,-1.019 6.233,-2.039 9.443,-3.09 C 55.719,91.514 32.44,82.748 7.502,73.361 -19.334,63.257 -48.312,52.349 -79.655,40.55 c -3.165,1.596 -6.229,3.16 -9.277,4.714"
         style="fill:#eadbd7;fill-opacity:1;fill-rule:evenodd;stroke:none"
         transform="matrix(1.3333333,0,0,-1.3333333,306.47133,474.54293)"
         clip-path="url(#clipPath17)" />
      <path
         id="path18"
         d="m 0,0 -15.632,29.948 c -0.729,1.394 -0.691,2.964 0.104,4.394 0.795,1.43 2.123,2.32 3.727,2.495 l 110.496,12.07 c 4.647,0.508 8.763,-0.892 12.011,-4.077 l 27.625,-27.137 c 1.27,-1.246 1.655,-3.027 1.032,-4.763 -0.626,-1.738 -2.081,-2.931 -3.889,-3.194 L 15.225,-7.634 C 8.792,-8.561 2.934,-5.627 0,0"
         style="fill:#f03a1f;fill-opacity:1;fill-rule:evenodd;stroke:none"
         transform="matrix(1.3333333,0,0,-1.3333333,409.6244,409.61787)"
         clip-path="url(#clipPath19)" />
      <path
         id="path20"
         d="m 0,0 -5.103,9.774 133.526,15.66 7.693,-7.557 z"
         style="fill:#2f2825;fill-opacity:1;fill-rule:evenodd;stroke:none"
         transform="matrix(1.3333333,0,0,-1.3333333,406.77533,404.16147)"
         clip-path="url(#clipPath21)" />
      <path
         id="path22"
         d="m 0,0 -15.628,29.95 c -0.729,1.395 -0.693,2.964 0.101,4.392 0.795,1.429 2.125,2.32 3.727,2.498 L 98.698,48.908 c 4.646,0.507 8.764,-0.89 12.01,-4.079 l 27.629,-27.136 c 1.268,-1.246 1.654,-3.027 1.029,-4.763 C 138.74,11.193 137.288,10 135.475,9.735 L 15.231,-7.632 C 8.796,-8.563 2.938,-5.628 0,0"
         style="fill:#87b027;fill-opacity:1;fill-rule:evenodd;stroke:none"
         transform="matrix(1.3333333,0,0,-1.3333333,244.3164,407.71947)"
         clip-path="url(#clipPath23)" />
      <path
         id="path24"
         d="m 0,0 -5.1,9.776 133.524,15.658 7.692,-7.554 z"
         style="fill:#2f2825;fill-opacity:1;fill-rule:evenodd;stroke:none"
         transform="matrix(1.3333333,0,0,-1.3333333,241.46813,402.26307)"
         clip-path="url(#clipPath25)" />
      <path
         id="path26"
         d="M 0,0 110.475,65.625 141.277,103.313 325.678,46.104 298.906,3.273 199.417,-82.769 Z"
         style="fill:#463d3b;fill-opacity:1;fill-rule:evenodd;stroke:none"
         transform="matrix(1.3333333,0,0,-1.3333333,424.91733,519.86453)"
         clip-path="url(#clipPath27)" />
      <path
         id="path28"
         d="m 0,0 20.835,33.331 -174.901,54.26 -24.48,-29.956 z"
         style="fill:#2f2825;fill-opacity:1;fill-rule:evenodd;stroke:none"
         transform="matrix(1.3333333,0,0,-1.3333333,821.04427,506.67053)"
         clip-path="url(#clipPath29)" />
      <path
         id="path30"
         d="M 0,0 C 11.315,-3.986 22.802,-8.026 34.482,-12.14 28.968,-16.339 23.386,-20.601 17.716,-24.928 5.904,-20.617 -5.698,-16.376 -17.123,-12.204 -11.318,-8.063 -5.605,-4.002 0,0"
         style="fill:#766864;fill-opacity:1;fill-rule:evenodd;stroke:none"
         transform="matrix(1.3333333,0,0,-1.3333333,660.638,501.3412)"
         clip-path="url(#clipPath31)" />
      <path
         id="path32"
         d="M 0,0 C 12.141,-4.263 24.472,-8.609 36.993,-13.025 31.711,-17.517 26.316,-22.081 20.854,-26.732 8.148,-22.094 -4.32,-17.526 -16.58,-13.047 -10.958,-8.62 -5.423,-4.271 0,0"
         style="fill:#f0421e;fill-opacity:1;fill-rule:evenodd;stroke:none"
         transform="matrix(1.3333333,0,0,-1.3333333,726.66013,524.61067)"
         clip-path="url(#clipPath33)" />
      <path
         id="path34"
         d="m 0,0 c 9.877,-3.482 19.907,-7.017 30.091,-10.607 -5.798,-3.68 -11.666,-7.423 -17.643,-11.224 -10.243,3.759 -20.353,7.449 -30.306,11.08 C -11.822,-7.114 -5.855,-3.535 0,0"
         style="fill:#766864;fill-opacity:1;fill-rule:evenodd;stroke:none"
         transform="matrix(1.3333333,0,0,-1.3333333,541.3984,459.32547)"
         clip-path="url(#clipPath35)" />
      <path
         id="path36"
         d="M 0,0 C 11.473,-4.26 23.12,-8.586 34.978,-12.988 29.092,-17.474 23.125,-22.036 17.081,-26.656 5.09,-22.033 -6.67,-17.484 -18.251,-13.015 -12.096,-8.614 -6.001,-4.265 0,0"
         style="fill:#766864;fill-opacity:1;fill-rule:evenodd;stroke:none"
         transform="matrix(1.3333333,0,0,-1.3333333,627.7136,524.82293)"
         clip-path="url(#clipPath37)" />
      <path
         id="path38"
         d="M 0,0 C 12.329,-4.575 24.873,-9.235 37.628,-13.975 31.964,-18.797 26.184,-23.693 20.342,-28.66 7.428,-23.674 -5.27,-18.768 -17.733,-13.954 -11.737,-9.23 -5.82,-4.581 0,0"
         style="fill:#766864;fill-opacity:1;fill-rule:evenodd;stroke:none"
         transform="matrix(1.3333333,0,0,-1.3333333,694.73053,549.7252)"
         clip-path="url(#clipPath39)" />
      <path
         id="path40"
         d="M 0,0 C 9.975,-3.711 20.105,-7.475 30.39,-11.3 24.22,-15.223 17.977,-19.201 11.634,-23.236 1.272,-19.229 -8.935,-15.295 -18.984,-11.411 -12.567,-7.56 -6.248,-3.753 0,0"
         style="fill:#766864;fill-opacity:1;fill-rule:evenodd;stroke:none"
         transform="matrix(1.3333333,0,0,-1.3333333,507.0768,479.98693)"
         clip-path="url(#clipPath41)" />
      <path
         id="path42"
         d="m 0,0 c 11.648,-4.57 23.451,-9.215 35.491,-13.943 -6.3,-4.798 -12.679,-9.681 -19.162,-14.633 -12.168,4.968 -24.077,9.849 -35.828,14.656 C -12.893,-9.215 -6.386,-4.57 0,0"
         style="fill:#766864;fill-opacity:1;fill-rule:evenodd;stroke:none"
         transform="matrix(1.3333333,0,0,-1.3333333,592.582,549.86587)"
         clip-path="url(#clipPath43)" />
      <path
         id="path44"
         d="M 0,0 C 12.514,-4.917 25.28,-9.93 38.247,-15.032 32.169,-20.201 25.971,-25.455 19.688,-30.794 6.547,-25.413 -6.338,-20.138 -19.004,-14.963 -12.567,-9.894 -6.233,-4.909 0,0"
         style="fill:#766864;fill-opacity:1;fill-rule:evenodd;stroke:none"
         transform="matrix(1.3333333,0,0,-1.3333333,660.60813,576.58987)"
         clip-path="url(#clipPath45)" />
      <path
         id="path46"
         d="m 0,0 c 10.069,-3.958 20.299,-7.976 30.7,-12.064 -6.568,-4.179 -13.22,-8.423 -19.986,-12.729 -10.476,4.284 -20.755,8.504 -30.898,12.645 C -13.366,-8.042 -6.625,-3.989 0,0"
         style="fill:#766864;fill-opacity:1;fill-rule:evenodd;stroke:none"
         transform="matrix(1.3333333,0,0,-1.3333333,470.5924,501.93093)"
         clip-path="url(#clipPath47)" />
      <path
         id="path48"
         d="M 0,0 C 10.817,-4.244 21.794,-8.557 32.988,-12.954 26.536,-17.434 19.989,-21.977 13.357,-26.59 2.064,-21.972 -8.989,-17.439 -19.887,-12.991 -13.159,-8.602 -6.528,-4.268 0,0"
         style="fill:#766864;fill-opacity:1;fill-rule:evenodd;stroke:none"
         transform="matrix(1.3333333,0,0,-1.3333333,529.42053,525.0456)"
         clip-path="url(#clipPath49)" />
      <path
         id="path50"
         d="m 0,0 c 10.698,-3.966 21.528,-7.996 32.594,-12.099 -6.047,-4.193 -12.168,-8.448 -18.387,-12.763 -11.148,4.31 -22.08,8.533 -32.857,12.689 C -12.348,-8.06 -6.129,-3.993 0,0"
         style="fill:#766864;fill-opacity:1;fill-rule:evenodd;stroke:none"
         transform="matrix(1.3333333,0,0,-1.3333333,565.30467,501.63667)"
         clip-path="url(#clipPath51)" />
      <path
         id="path52"
         d="M 0,0 C 11.154,-3.731 22.444,-7.522 33.956,-11.366 28.768,-15.311 23.528,-19.312 18.209,-23.368 6.577,-19.34 -4.842,-15.379 -16.107,-11.472 -10.675,-7.597 -5.301,-3.769 0,0"
         style="fill:#766864;fill-opacity:1;fill-rule:evenodd;stroke:none"
         transform="matrix(1.3333333,0,0,-1.3333333,691.62373,479.28)"
         clip-path="url(#clipPath53)" />
      <path
         id="path54"
         d="M 0,0 C 11.928,-3.994 24.029,-8.044 36.339,-12.174 31.38,-16.39 26.327,-20.667 21.22,-25.01 8.748,-20.689 -3.512,-16.426 -15.581,-12.243 -10.314,-8.11 -5.121,-4.025 0,0"
         style="fill:#766864;fill-opacity:1;fill-rule:evenodd;stroke:none"
         transform="matrix(1.3333333,0,0,-1.3333333,756.64187,501.04813)"
         clip-path="url(#clipPath55)" />
      <path
         id="path56"
         d="M 0,0 C 9.774,-3.279 19.703,-6.595 29.76,-9.972 24.284,-13.447 18.749,-16.982 13.121,-20.551 2.98,-17.025 -7.027,-13.559 -16.86,-10.144 -11.172,-6.725 -5.559,-3.335 0,0"
         style="fill:#766864;fill-opacity:1;fill-rule:evenodd;stroke:none"
         transform="matrix(1.3333333,0,0,-1.3333333,573.81773,439.83333)"
         clip-path="url(#clipPath57)" />
      <path
         id="path58"
         d="M 0,0 C 10.42,-3.483 21.007,-7.029 31.767,-10.632 26.439,-14.335 21.015,-18.086 15.518,-21.89 4.652,-18.123 -6.022,-14.42 -16.524,-10.771 -10.942,-7.139 -5.434,-3.541 0,0"
         style="fill:#766864;fill-opacity:1;fill-rule:evenodd;stroke:none"
         transform="matrix(1.3333333,0,0,-1.3333333,630.8164,458.92187)"
         clip-path="url(#clipPath59)" />
      <path
         id="path60"
         d="m 0,0 c 10.551,-3.717 21.27,-7.497 32.184,-11.34 -5.67,-3.924 -11.413,-7.915 -17.26,-11.963 -11,4.022 -21.805,7.982 -32.455,11.867 C -11.599,-7.57 -5.754,-3.753 0,0"
         style="fill:#766864;fill-opacity:1;fill-rule:evenodd;stroke:none"
         transform="matrix(1.3333333,0,0,-1.3333333,599.0352,479.6328)"
         clip-path="url(#clipPath61)" />
      <path
         id="path62"
         d="m 0,0 c 47.797,6.844 93.696,13.412 137.699,19.71 42.262,6.047 82.917,11.865 122.061,17.463 8.204,-8.654 16.739,-17.659 25.611,-27.011 9.246,-9.747 18.895,-19.923 28.951,-30.52 -43.169,-7.613 -88.259,-15.574 -135.352,-23.883 -49.362,-8.711 -101.108,-17.843 -155.355,-27.42 -4.414,13.387 -8.62,26.15 -12.631,38.325 C 7.161,-21.726 3.498,-10.62 0,0"
         style="fill:#e1f0be;fill-opacity:1;fill-rule:evenodd;stroke:none"
         transform="matrix(1.3333333,0,0,-1.3333333,6.2057333,459.6068)"
         clip-path="url(#clipPath63)" />
      <path
         id="path64"
         d="M 0,0 C 2.116,0.353 4.202,0.708 6.346,1.064 5.479,2.375 4.623,3.688 3.762,4.997 c 6.107,1.914 7.665,5.211 5.309,8.708 -4.594,6.82 -21.124,3.903 -23.26,7.266 -1.005,1.574 0.235,2.496 3.241,2.964 2.628,0.407 4.952,0.119 7.969,-0.674 0.893,1.203 1.752,2.406 2.661,3.607 -3.374,1.031 -6.931,1.678 -11.109,1.382 -0.753,1.142 -1.509,2.289 -2.256,3.424 -2.004,-0.305 -4.008,-0.61 -6.012,-0.906 0.753,-1.166 1.503,-2.338 2.261,-3.504 -5.519,-1.56 -7.7,-4.492 -5.577,-7.941 3.992,-6.475 20.878,-3.707 23.326,-7.431 C 1.429,10.195 0.392,9.105 -3.248,8.518 -6.338,8.014 -9.678,8.278 -13.866,9.155 -14.512,7.7 -15.135,6.24 -15.764,4.779 -11.66,3.664 -6.476,3.435 -2.447,3.807 -1.632,2.542 -0.816,1.274 0,0 m -19.782,35.014 c -7.441,-1.108 -13.085,-4.177 -16.013,-8.286 -2.977,-4.183 -3.365,-9.44 -0.16,-14.948 3.206,-5.506 9.519,-10.187 17.021,-13.103 7.549,-2.94 16.382,-4.092 24.34,-2.741 7.956,1.35 13.515,4.891 16.047,9.448 2.486,4.474 2.083,9.967 -1.652,15.236 -3.734,5.27 -9.974,9.378 -17.078,11.94 -7.064,2.546 -15.067,3.562 -22.505,2.454 m 81.113,1.781 c -8.26,-1.268 -12.099,-6.076 -8.302,-10.907 3.798,-4.833 14.028,-7.77 22.52,-6.379 8.493,1.392 11.87,6.473 7.828,11.192 -4.042,4.721 -13.784,7.363 -22.046,6.094 M -94.109,12.88 c -9.572,-1.471 -15.599,-6.937 -13.268,-12.426 2.331,-5.493 12.484,-8.808 22.384,-7.187 9.9,1.623 15.537,7.43 12.848,12.774 -2.687,5.344 -12.392,8.312 -21.964,6.839 m -43.811,13.272 c 39.045,5.655 76.758,11.12 113.215,16.406 35.202,5.106 69.307,10.044 102.338,14.83 3.886,-4.333 13.63,-6.926 21.63,-5.73 4.898,-5.236 9.88,-10.595 14.982,-16.064 5.248,-5.618 10.606,-11.364 16.084,-17.254 -8.45,-1.426 -11.637,-6.785 -6.916,-12.058 C 87.377,0.014 50.038,-6.486 11.287,-13.232 c -40.252,-7.006 -82.09,-14.288 -125.6,-21.856 -2.452,6.383 -13.082,9.985 -23.914,8.159 -2.542,7.301 -5.004,14.405 -7.4,21.315 -2.329,6.724 -4.604,13.288 -6.805,19.677 10.072,1.501 16.514,6.95 14.512,12.089"
         style="fill:#94c64b;fill-opacity:1;fill-rule:evenodd;stroke:none"
         transform="matrix(1.3333333,0,0,-1.3333333,225.8496,494.85547)"
         clip-path="url(#clipPath65)" />
      <path
         id="path66"
         d="m 0,0 c 47.479,3.774 93.676,7.451 138.598,11.022 43.697,3.472 86.248,6.857 127.68,10.15 6.811,-10.16 13.866,-20.679 21.173,-31.568 7.575,-11.293 15.442,-23.019 23.605,-35.181 C 265.434,-50.259 218.452,-55.082 170.02,-60.056 120.112,-65.177 68.516,-70.473 15.384,-75.934 12.557,-61.984 9.841,-48.583 7.235,-35.722 4.731,-23.358 2.319,-11.462 0,0"
         style="fill:#e1f0be;fill-opacity:1;fill-rule:evenodd;stroke:none"
         transform="matrix(1.3333333,0,0,-1.3333333,109.40627,566.47133)"
         clip-path="url(#clipPath67)" />
      <path
         id="path68"
         d="M 0,0 C 2.155,0.209 4.31,0.416 6.468,0.625 5.829,2.081 5.164,3.527 4.53,4.976 c 6.389,1.553 8.469,4.917 6.653,8.822 -3.538,7.604 -20.497,5.768 -22.133,9.505 -0.771,1.763 0.594,2.65 3.692,2.921 2.686,0.233 4.968,-0.244 7.871,-1.328 1.068,1.222 2.128,2.447 3.215,3.661 -3.197,1.359 -6.691,2.329 -10.916,2.321 -0.588,1.286 -1.15,2.572 -1.739,3.839 -2.049,-0.175 -4.098,-0.345 -6.149,-0.52 0.561,-1.309 1.147,-2.619 1.707,-3.928 -5.742,-1.251 -8.377,-4.22 -6.762,-8.053 C -17.002,15.033 0.291,16.692 2.158,12.538 3,10.664 1.776,9.582 -1.914,9.235 -5.089,8.939 -8.386,9.483 -12.432,10.723 -13.288,9.241 -14.144,7.748 -14.95,6.259 -11.053,4.763 -5.921,4.122 -1.852,4.198 -1.228,2.802 -0.63,1.402 0,0 m -14.457,38.767 c -7.629,-0.638 -13.696,-3.525 -17.217,-7.696 -3.58,-4.243 -4.721,-9.8 -2.327,-15.875 2.394,-6.074 7.982,-11.485 14.964,-15.125 7.058,-3.678 15.681,-5.555 23.817,-4.759 8.134,0.795 14.226,4.081 17.497,8.704 3.213,4.544 3.7,10.417 0.801,16.334 -2.895,5.916 -8.515,10.796 -15.295,14.097 -6.704,3.26 -14.611,4.956 -22.24,4.32 M 67.939,34.616 C 59.287,33.86 54.526,28.954 57.545,23.467 c 3.022,-5.489 12.851,-9.41 21.758,-8.577 8.903,0.831 13.336,6.043 10.074,11.45 -3.259,5.408 -12.783,9.032 -21.438,8.276 M -91.201,20.753 c -9.564,-0.836 -16.138,-6.124 -14.505,-12.04 1.633,-5.911 11.101,-10.131 20.988,-9.203 9.887,0.927 16.146,6.563 14.206,12.385 -1.938,5.823 -11.123,9.693 -20.689,8.858 m -41.329,17.272 c 38.991,3.149 77.067,6.234 114.288,9.241 36.362,2.936 71.899,5.804 106.68,8.626 3.199,-5.056 12.747,-8.629 21.258,-7.91 4.016,-6.108 8.13,-12.33 12.328,-18.692 4.279,-6.485 8.64,-13.132 13.095,-19.901 C 126.133,8.511 121.834,3.012 125.635,-2.993 87.759,-6.82 48.97,-10.746 9.185,-14.762 c -40.813,-4.125 -82.685,-8.352 -125.669,-12.695 -1.627,6.726 -11.503,11.248 -22.107,10.209 -1.648,7.689 -3.287,15.21 -4.862,22.55 -1.534,7.164 -3.041,14.183 -4.539,21.041 9.954,0.838 16.838,6.105 15.462,11.682"
         style="fill:#94c64b;fill-opacity:1;fill-rule:evenodd;stroke:none"
         transform="matrix(1.3333333,0,0,-1.3333333,320.9336,620.19667)"
         clip-path="url(#clipPath69)" />
    </g>
  </g>
</svg>
